<?xml version="1.0" encoding="UTF-8" standalone="no"?>
<svg
   xmlns:dc="http://purl.org/dc/elements/1.1/"
   xmlns:cc="http://creativecommons.org/ns#"
   xmlns:rdf="http://www.w3.org/1999/02/22-rdf-syntax-ns#"
   xmlns:svg="http://www.w3.org/2000/svg"
   xmlns="http://www.w3.org/2000/svg"
   xmlns:sodipodi="http://sodipodi.sourceforge.net/DTD/sodipodi-0.dtd"
   xmlns:inkscape="http://www.inkscape.org/namespaces/inkscape"
   viewBox="0 0 108 108"
   id="vector"
   version="1.1"
   width="108"
   height="108"
   sodipodi:docname="vector.svg"
   inkscape:version="1.0.1 (3bc2e813f5, 2020-09-07)">
  <metadata
     id="metadata11">
    <rdf:RDF>
      <cc:Work
         rdf:about="">
        <dc:format>image/svg+xml</dc:format>
        <dc:type
           rdf:resource="http://purl.org/dc/dcmitype/StillImage" />
        <dc:title></dc:title>
      </cc:Work>
    </rdf:RDF>
  </metadata>
  <defs
     id="defs9" />
  <sodipodi:namedview
     pagecolor="#ffffff"
     bordercolor="#666666"
     borderopacity="1"
     objecttolerance="10"
     gridtolerance="10"
     guidetolerance="10"
     inkscape:pageopacity="0"
     inkscape:pageshadow="2"
     inkscape:window-width="1858"
     inkscape:window-height="1057"
     id="namedview7"
     showgrid="false"
     inkscape:zoom="2.0601852"
     inkscape:cx="158.50103"
     inkscape:cy="73.614863"
     inkscape:window-x="-8"
     inkscape:window-y="-8"
     inkscape:window-maximized="1"
     inkscape:current-layer="vector"
     inkscape:document-rotation="0" />
  <path
     id="path"
     d="m 33.372562,44.777265 0.173893,31.732138 25.18273,0.07241 c 5.933457,-0.729377 11.554723,-3.71573 15.449129,-8.207127 3.894406,-4.491399 6.024249,-10.444842 5.853675,-16.361555 -0.08355,-2.89811 -0.700246,-5.775466 -1.756872,-8.479473 -1.618874,-4.142759 -4.297994,-7.897909 -7.812189,-10.659698 -3.514045,-2.76179 -7.867087,-4.503791 -12.346061,-4.764786 -1.160691,-0.06764 -2.324699,-0.03792 -3.487199,-0.01239 -7.051014,0.154685 -14.105497,0.154685 -21.156511,0 l -0.092,15.178868"
     fill="#00000000"
     stroke="#ff0000"
     stroke-width="3.86708"
     stroke-linejoin="round"
     style="fill:#ffffff;fill-opacity:1;stroke-width:5.82075;stroke-miterlimit:4;stroke-dasharray:none" />
  <path
     id="path_1"
     d="m 33.378332,43.278452 21.47492,-0.0904"
     fill="#00000000"
     stroke="#ff0000"
     stroke-width="3.85746"
     sodipodi:nodetypes="cc"
     style="stroke-width:5.82075;stroke-linecap:square;stroke-miterlimit:4;stroke-dasharray:none" />
  <path
     id="path_2"
     d="m 33.372562,44.777265 17.134663,0.104668 0.186403,16.424721 4.107131,-0.128117"
     fill="#00000000"
     stroke="#ff0000"
     stroke-width="3.86708"
     stroke-linejoin="round"
     style="fill:#ffffff;fill-opacity:1;stroke-width:5.82075;stroke-linecap:square;stroke-miterlimit:4;stroke-dasharray:none"
     sodipodi:nodetypes="cccc" />
  <path
     id="path_3"
     d="m 49.84197,43.682226 c 3.35629,-0.171409 6.711825,-0.342817 8.887065,0.318029 2.175088,0.660997 3.168974,2.1538 3.788231,3.442794 0.619105,1.288994 0.863429,2.373882 0.98544,3.425174 0.122163,1.051144 0.122163,2.068693 -0.145841,3.243764 -0.268002,1.17507 -0.803856,2.507813 -1.543615,3.706176 -0.73991,1.198362 -1.683423,2.2619 -3.563965,2.718191 -1.880542,0.456142 -4.697207,0.304593 -7.514778,0.153043"
     fill="#ff0000"
     stroke="#fa0000"
     stroke-width="5.20442"
     style="stroke-width:6.69386;stroke-miterlimit:4;stroke-dasharray:none" />
</svg>
